<?xml version="1.0" standalone="no"?><!DOCTYPE svg PUBLIC "-//W3C//DTD SVG 1.1//EN" "http://www.w3.org/Graphics/SVG/1.1/DTD/svg11.dtd"><svg t="1608002046952" class="icon" viewBox="0 0 1024 1024" version="1.1" xmlns="http://www.w3.org/2000/svg" p-id="3571" xmlns:xlink="http://www.w3.org/1999/xlink" width="200" height="200"><defs><style type="text/css"></style></defs><path d="M985.918174 407.306852C833.587596 278.999733 536.843261 21.020528 533.840328 18.290589L512.273813 0l-21.293522 18.017595-27.299387 22.658491C391.610523 104.829645 165.5716 300.293255 36.718494 407.306852A78.34924 78.34924 0 0 0 88.314335 545.987737H145.916042v399.117035a78.895228 78.895228 0 0 0 78.895228 78.895228h150.419621a78.895228 78.895228 0 0 0 78.895228-78.895228v-149.054652h116.295388v149.054652a78.895228 78.895228 0 0 0 78.895228 78.895228h150.965609a79.441216 79.441216 0 0 0 78.076246-78.34924V545.987737h58.147694a78.076246 78.076246 0 0 0 49.957878-138.953879zM388.607591 729.166622v215.93815a12.830712 12.830712 0 0 1-12.830712 12.830712H223.992288a12.830712 12.830712 0 0 1-12.830712-12.830712v-464.089576H88.041342a12.830712 12.830712 0 0 1-12.284725-12.830712 15.014663 15.014663 0 0 1 4.640896-10.373767c131.856038-109.197547 363.900826-310.940016 432.149294-370.452679 78.34924 68.521461 301.658224 263.712077 431.876299 371.544655a12.01173 12.01173 0 0 1 4.640896 9.554785 12.830712 12.830712 0 0 1-12.830712 12.830712h-123.939216v464.089576a12.830712 12.830712 0 0 1-12.830712 12.830712h-150.965609a12.830712 12.830712 0 0 1-12.830712-12.830712v-216.211144z" p-id="3572"></path></svg>