<svg xmlns="http://www.w3.org/2000/svg" xmlns:xlink="http://www.w3.org/1999/xlink" width="1024" height="1024" viewBox="0 0 1024 1024">
  <defs>
    <style>
      .cls-1, .cls-11, .cls-12, .cls-13, .cls-14, .cls-15, .cls-16, .cls-17, .cls-18, .cls-19, .cls-2, .cls-20, .cls-22, .cls-23, .cls-24, .cls-25, .cls-26, .cls-27, .cls-28, .cls-29, .cls-3, .cls-30, .cls-31, .cls-4, .cls-5, .cls-6, .cls-7, .cls-8, .cls-9 {
        fill-rule: evenodd;
      }

      .cls-1 {
        fill: url(#linear-gradient);
      }

      .cls-2 {
        fill: url(#linear-gradient-2);
      }

      .cls-3 {
        fill: url(#linear-gradient-3);
      }

      .cls-4 {
        fill: url(#linear-gradient-4);
      }

      .cls-5 {
        fill: #fff;
      }

      .cls-6 {
        fill: url(#linear-gradient-5);
      }

      .cls-7 {
        fill: url(#linear-gradient-6);
      }

      .cls-8 {
        fill: #b3b3b3;
      }

      .cls-9 {
        fill: #e6e6e6;
      }

      .cls-10 {
        fill: url(#radial-gradient);
      }

      .cls-11 {
        fill: url(#linear-gradient-7);
      }

      .cls-12 {
        fill: url(#linear-gradient-8);
      }

      .cls-13 {
        fill: url(#linear-gradient-9);
      }

      .cls-14 {
        fill: url(#linear-gradient-10);
      }

      .cls-15 {
        fill: url(#linear-gradient-11);
      }

      .cls-16 {
        fill: url(#linear-gradient-12);
      }

      .cls-17 {
        fill: url(#linear-gradient-13);
      }

      .cls-18 {
        fill: url(#linear-gradient-14);
      }

      .cls-19 {
        fill: #ccc;
      }

      .cls-20 {
        fill: url(#radial-gradient-2);
      }

      .cls-21 {
        fill: url(#linear-gradient-15);
      }

      .cls-22 {
        fill: url(#linear-gradient-16);
      }

      .cls-23 {
        fill: #f8cfad;
      }

      .cls-24 {
        fill: #141a33;
      }

      .cls-25 {
        fill: #232c57;
      }

      .cls-26 {
        fill: #292966;
      }

      .cls-27 {
        fill: #f0c5a8;
      }

      .cls-28 {
        fill: #e8b008;
      }

      .cls-29 {
        fill: #f6bb07;
      }

      .cls-30 {
        fill: #ffc108;
      }

      .cls-31 {
        fill: #a2bdeb;
      }
    </style>
    <linearGradient id="linear-gradient" x1="512.342" y1="2266.13" x2="512.342" y2="666.063" gradientUnits="userSpaceOnUse">
      <stop offset="0.919" stop-color="#e6e6e6" stop-opacity="0"/>
      <stop offset="1" stop-color="#e6e6e6"/>
    </linearGradient>
    <linearGradient id="linear-gradient-2" x1="434.933" y1="762.375" x2="402.754" y2="633.313" gradientUnits="userSpaceOnUse">
      <stop offset="0" stop-color="#ccc"/>
      <stop offset="1" stop-color="#e6e6e6" stop-opacity="0"/>
    </linearGradient>
    <linearGradient id="linear-gradient-3" x1="521.095" y1="773.656" x2="437.999" y2="440.375" gradientUnits="userSpaceOnUse">
      <stop offset="0" stop-color="#999"/>
      <stop offset="1" stop-color="#ccc"/>
    </linearGradient>
    <linearGradient id="linear-gradient-4" x1="385.938" y1="718.921" x2="598" y2="506.859" gradientUnits="userSpaceOnUse">
      <stop offset="0" stop-color="#ccc"/>
      <stop offset="1" stop-color="#fff"/>
    </linearGradient>
    <linearGradient id="linear-gradient-5" x1="477" y1="452.5" x2="489.094" y2="452.5" gradientUnits="userSpaceOnUse">
      <stop offset="-0.25" stop-color="#b3b3b3"/>
      <stop offset="0.496" stop-color="#eaeaea"/>
      <stop offset="1.25" stop-color="#b3b3b3"/>
    </linearGradient>
    <linearGradient id="linear-gradient-6" x1="481.332" y1="453.719" x2="466.606" y2="394.656" xlink:href="#linear-gradient-3"/>
    <radialGradient id="radial-gradient" cx="483.578" cy="437.985" r="8.203" gradientUnits="userSpaceOnUse">
      <stop offset="0" stop-color="#e6e6e6"/>
      <stop offset="1.42" stop-color="#b3b3b3"/>
    </radialGradient>
    <linearGradient id="linear-gradient-7" x1="508.313" y1="600.14" x2="432.313" y2="600.14" gradientUnits="userSpaceOnUse">
      <stop offset="0" stop-color="#e6e6e6" stop-opacity="0"/>
      <stop offset="1" stop-color="#e6e6e6"/>
    </linearGradient>
    <linearGradient id="linear-gradient-8" x1="536.313" y1="636.64" y2="636.64" xlink:href="#linear-gradient-7"/>
    <linearGradient id="linear-gradient-9" x1="550" y1="549" x2="432.5" y2="549" xlink:href="#linear-gradient-7"/>
    <linearGradient id="linear-gradient-10" x1="599.321" y1="775" x2="570.648" y2="660" xlink:href="#linear-gradient-3"/>
    <linearGradient id="linear-gradient-11" x1="528.953" y1="768.094" x2="641.047" y2="656" xlink:href="#linear-gradient-4"/>
    <linearGradient id="linear-gradient-12" x1="212.875" y1="728.578" x2="243.156" y2="698.297" gradientUnits="userSpaceOnUse">
      <stop offset="0" stop-color="#d7d7d7"/>
      <stop offset="0.485" stop-color="#fafafa"/>
      <stop offset="1" stop-color="#fafafa"/>
    </linearGradient>
    <linearGradient id="linear-gradient-13" x1="774.469" y1="774.953" x2="811" y2="738.422" gradientUnits="userSpaceOnUse">
      <stop offset="0" stop-color="#ccc"/>
      <stop offset="1" stop-color="#fafafa"/>
    </linearGradient>
    <linearGradient id="linear-gradient-14" x1="324.219" y1="829.704" x2="362.313" y2="791.61" xlink:href="#linear-gradient-12"/>
    <radialGradient id="radial-gradient-2" cx="311.563" cy="620.515" r="11.515" gradientUnits="userSpaceOnUse">
      <stop offset="0" stop-color="#fafafa"/>
      <stop offset="1.2" stop-color="#e6e6e6"/>
    </radialGradient>
    <linearGradient id="linear-gradient-15" x1="682.188" y1="529.718" x2="730.375" y2="481.531" gradientUnits="userSpaceOnUse">
      <stop offset="0" stop-color="#ccc"/>
      <stop offset="1" stop-color="#fff" stop-opacity="0.702"/>
    </linearGradient>
    <linearGradient id="linear-gradient-16" x1="677.219" y1="534.094" x2="736.063" y2="475.25" gradientUnits="userSpaceOnUse">
      <stop offset="0" stop-color="#ccc"/>
      <stop offset="0.495" stop-color="#ccc" stop-opacity="0.702"/>
      <stop offset="0.498" stop-color="#ccc"/>
      <stop offset="1" stop-color="#fff" stop-opacity="0.302"/>
    </linearGradient>
  </defs>
  <g id="画板_1" data-name="画板 1">
    <path id="椭圆_1" data-name="椭圆 1" class="cls-1" d="M512.33,666.07c441.828,0,800,358.18,800,800.03s-358.172,800.02-800,800.02-800-358.18-800-800.02S70.5,666.07,512.33,666.07Z"/>
    <g id="订单">
      <g id="组_5" data-name="组 5">
        <path id="阴影" class="cls-2" d="M257.776,672.443L467.3,633.3l112.6,89.934L370.372,762.377Z"/>
        <path id="形状_1" data-name="形状 1" class="cls-3" d="M589.967,451.173c-0.079-.016-0.156-0.035-0.236-0.048a9.839,9.839,0,0,0-1.374-.131c-0.1,0-.2,0-0.3,0a10.736,10.736,0,0,0-1.484.094L397.931,477.559a11.4,11.4,0,0,0-1.587.35c-0.219.064-.43,0.15-0.645,0.227-0.282.1-.564,0.2-0.838,0.322a12.964,12.964,0,0,0-2.431,1.409c-0.146.107-.285,0.225-0.427,0.338a14.266,14.266,0,0,0-1.182,1.047c-0.076.076-.153,0.152-0.228,0.231-0.251.262-.5,0.531-0.728,0.813-0.066.079-.128,0.162-0.192,0.242-0.25.318-.5,0.642-0.721,0.98-0.2.3-.389,0.605-0.567,0.919a14.962,14.962,0,0,0-1.253,2.858c-0.052.166-.113,0.33-0.159,0.5-0.067.242-.117,0.489-0.171,0.734-0.036.16-.08,0.318-0.11,0.479-0.051.275-.083,0.554-0.117,0.832-0.017.137-.044,0.271-0.057,0.409q-0.058.625-.061,1.261L385.95,763.954a10.7,10.7,0,0,0,5.314,9.692l-19.558-10.624a10.7,10.7,0,0,1-5.314-9.692L366.9,480.884q0-.635.061-1.261c0.013-.135.039-0.268,0.056-0.4,0.035-.28.067-0.561,0.118-0.837,0.03-.161.074-0.318,0.109-0.478,0.055-.246.1-0.494,0.171-0.736,0.048-.17.109-0.335,0.162-0.5,0.068-.213.128-0.43,0.2-0.64a14.817,14.817,0,0,1,.727-1.639c0.019-.037.036-0.075,0.055-0.112,0.03-.057.055-0.116,0.086-0.173a14.952,14.952,0,0,1,.933-1.511,14.7,14.7,0,0,1,1.031-1.307,14.43,14.43,0,0,1,1.168-1.178,13.783,13.783,0,0,1,1.385-1.095,12.947,12.947,0,0,1,1.86-1.071,11.725,11.725,0,0,1,3.347-1l188.642-26.473a10.57,10.57,0,0,1,1.484-.093c0.1,0,.2,0,0.3,0a9.825,9.825,0,0,1,1.374.131c0.08,0.013.157,0.033,0.236,0.048,0.188,0.037.379,0.068,0.563,0.115l0.114,0.062h0l-0.114-.062a9.444,9.444,0,0,1,1.81.668c0.118,0.057.234,0.118,0.349,0.18l19.558,10.624A9.483,9.483,0,0,0,589.967,451.173Z"/>
        <path id="形状_1-2" data-name="形状 1" class="cls-4" d="M586.573,451.086c6.324-.887,11.441,3.919,11.428,10.734l-0.507,272.447c-0.012,6.822-5.15,13.068-11.474,13.956L397.379,774.7c-6.324.887-11.441-3.92-11.429-10.742l0.507-272.446c0.013-6.816,5.151-13.062,11.474-13.949Z"/>
        <path id="形状_1-3" data-name="形状 1" class="cls-5" d="M571.118,477.519c5.291-.743,9.572,3.279,9.562,8.98l-0.424,227.939c-0.011,5.709-4.31,10.934-9.6,11.677L412.831,748.263c-5.291.742-9.572-3.279-9.561-8.987l0.424-227.939c0.01-5.7,4.309-10.928,9.6-11.67Z"/>
        <path id="圆角矩形_3" data-name="圆角矩形 3" class="cls-6" d="M477,443h12.1v17a10.147,10.147,0,0,1-12.1,0V443Z"/>
        <path id="形状_2" data-name="形状 2" class="cls-7" d="M493.568,400.192c-0.55-.132-1.107-0.246-1.673-0.338-0.223-.036-0.45-0.062-0.676-0.092-0.463-.061-0.931-0.11-1.4-0.143q-0.37-.026-0.744-0.041c-0.487-.018-0.98-0.018-1.475-0.006-0.225,0-.448,0-0.674.015-0.719.037-1.444,0.1-2.178,0.2-0.689.1-1.371,0.22-2.046,0.37-0.082.018-.162,0.044-0.243,0.063-0.6.14-1.2,0.294-1.792,0.475l-0.047.016a28.344,28.344,0,0,0-3.849,1.51c-0.376.18-.744,0.379-1.112,0.575-0.323.172-.65,0.334-0.967,0.518-0.283.165-.555,0.349-0.833,0.522a33.758,33.758,0,0,0-13.994,18.171c-0.124.385-.265,0.764-0.374,1.154-0.154.547-.267,1.107-0.391,1.662-0.083.369-.186,0.733-0.256,1.105-0.117.623-.189,1.256-0.269,1.887-0.039.315-.1,0.625-0.131,0.941q-0.136,1.427-.141,2.873c-0.019,10.006,4.878,18.127,12.257,22.1l-9.164-4.931c-7.38-3.97-12.276-12.091-12.257-22.1q0-1.444.14-2.872c0.031-.317.093-0.626,0.132-0.941,0.08-.631.152-1.264,0.269-1.887,0.069-.372.172-0.734,0.255-1.1,0.125-.557.238-1.117,0.392-1.666,0.108-.387.249-0.763,0.371-1.146,0.155-.485.294-0.977,0.471-1.454,0.218-.586.465-1.159,0.715-1.731,0.039-.089.072-0.182,0.112-0.271,0.2-.454.427-0.9,0.649-1.341,0.117-.235.228-0.472,0.351-0.7,0.061-.115.113-0.236,0.175-0.351a34.283,34.283,0,0,1,4.535-6.444,33.155,33.155,0,0,1,2.7-2.695,31.773,31.773,0,0,1,3.2-2.5,30,30,0,0,1,4.287-2.446l0.028,0.016h0l-0.028-.016a27.168,27.168,0,0,1,7.7-2.289c0.734-.1,1.459-0.162,2.178-0.2,0.226-.012.449-0.01,0.673-0.016,0.5-.011.989-0.012,1.476,0.007,0.249,0.009.5,0.024,0.744,0.041,0.472,0.033.939,0.082,1.4,0.143,0.226,0.03.453,0.055,0.676,0.091q0.849,0.138,1.672.339c0.09,0.022.184,0.032,0.273,0.055l0.013,0.007a21.878,21.878,0,0,1,4.965,1.93l9.164,4.93A21.961,21.961,0,0,0,493.568,400.192Z"/>
        <path id="形状_2-2" data-name="形状 2" class="cls-8" d="M485.342,405.117l9.164,4.93c5.129,2.76,8.533,8.407,8.52,15.365-0.02,10.8-8.257,20.713-18.37,22.119l-9.164-4.931c10.113-1.405,18.35-11.323,18.37-22.118C493.875,413.524,490.471,407.876,485.342,405.117Zm-10.474,40.746-9.164-4.93a15.862,15.862,0,0,0,9.788,1.667l9.164,4.931A15.856,15.856,0,0,1,474.868,445.863Z"/>
        <path id="形状_2-3" data-name="形状 2" class="cls-9" d="M484.745,399.787c14.549-2.023,26.362,8.966,26.332,24.506s-11.888,29.81-26.437,31.832-26.369-8.966-26.34-24.5S470.188,401.81,484.745,399.787Zm-0.089,47.744c10.113-1.406,18.35-11.324,18.37-22.119s-8.184-18.436-18.3-17.031-18.357,11.333-18.378,22.129,8.192,18.426,18.305,17.021"/>
        <ellipse id="椭圆_11" data-name="椭圆 11" class="cls-10" cx="483.578" cy="437.985" rx="8.203" ry="8.203"/>
        <path id="形状_1-4" data-name="形状 1" class="cls-11" d="M504.217,588.172a3.617,3.617,0,0,1,4.1,3.846l-0.182,5.63a5.089,5.089,0,0,1-4.111,5l-67.6,9.486a3.617,3.617,0,0,1-4.1-3.849l0.182-5.63a5.087,5.087,0,0,1,4.111-5Z"/>
        <path id="形状_1-5" data-name="形状 1" class="cls-12" d="M532.217,622.172a3.617,3.617,0,0,1,4.1,3.846l-0.182,5.63a5.089,5.089,0,0,1-4.111,5l-95.6,14.486a3.617,3.617,0,0,1-4.1-3.849l0.182-5.63a5.087,5.087,0,0,1,4.111-5Z"/>
      </g>
      <path id="new_vector_shape_done" class="cls-13" d="M550,537.5v2c-2.424.825-3.356,2.916-5,4.5q0.251,4,.5,8c-3.528-.3-4.047-1.82-8-2a13.8,13.8,0,0,1-6,4,1.708,1.708,0,0,0-.5-1,21.318,21.318,0,0,0,1-7.5c-1.89-.9-4.265-2.429-5-4.5a39.437,39.437,0,0,1,7.5-2.5c0.929-2.179,2.385-6.461,4.5-7.5v0.5c1.556,1.794,1.7,4.4,4,5.5C544.322,537.874,547.847,537.563,550,537.5ZM518.5,542v1.5c-7.28,4.681-2.813,5.949-5,13-2.432-.918-4.248-2.061-7-2.5a10.064,10.064,0,0,1-6.5,4c0.091-2.625,1.081-5.747.5-7-1.046-2.879-3.893-2.849-5-5.5,7.152-3.063,8.047-2.535,11-10a1.708,1.708,0,0,1,1,.5C511.543,540.539,509,542.265,518.5,542Zm-50,20.5c0.123-2.133,1.068-6.045.5-7-1.058-2.946-3.929-3.131-5-6,1.854-.622,5.76-1.116,7-2.5,2.836-1.557,2.089-6.032,5.5-7,1.021,5.225,3.3,6.318,10,6v0.5a2.546,2.546,0,0,1,.5,1.5c-2.036,1.333-3.277,3.369-5,5,0,3.137.642,4.862,1,7.5a7.084,7.084,0,0,1-2,.5,9.412,9.412,0,0,0-6-2.5A10.064,10.064,0,0,1,468.5,562.5Zm-13-11.5v1.5c-2.113,1.347-3.248,3.332-5,5,0.147,2.342,1.121,5.727.5,7a3.38,3.38,0,0,1-2,.5,7.918,7.918,0,0,0-5.5-2,11.69,11.69,0,0,1-6.5,4c0.11-3.542,1-5.569.5-8.5a13.564,13.564,0,0,1-5-4c2.118-1.206,7.046-2.047,8.5-4,1.641-2.2.84-5.184,4-6,0.939,4.32,2.771,6.245,8.5,6A3.38,3.38,0,0,0,455.5,551Z"/>
    </g>
    <path id="形状_4" data-name="形状 4" class="cls-14" d="M490,674s-0.224,9.3,0,11a19.4,19.4,0,0,0,2,6c0.716,0.994,63,80,63,80a14.533,14.533,0,0,0,9,4c2.937-.173,10-1,10-1s94.573-14.311,99-15,6.843-2.239,7-4,0-7,0-7l-71-88Z"/>
    <path id="new_vector_shape_done-2" data-name="new_vector_shape_done" class="cls-15" d="M601,656c10.077-.708,23.5,19,23.5,19L636,688.5s19.5,25.059,29,38c4.015,5.471,12.753,14.686,15,22-0.247,3.257-13,4.5-13,4.5s-65.066,10.5-87,14c-9.6,2.319-16.079.774-21-3-3.04-2.331-9.145-10.746-13-16-8.851-12.064-19-23.344-28-35.5-6.377-8.618-13.533-16.763-20-25.5-2.96-4-7.754-6.285-8-13,0.917-.643.856-0.984,2-1.5C496.341,669.351,597.154,657.2,601,656Zm-1.5,9L504,679a5.3,5.3,0,0,0-1,2.5l50.5,64H554V745l5.5-42.5A10.394,10.394,0,0,1,565,701c3.557,2.484,7.987,2.989,12,5,7.045,3.529,14.3,9.747,24,10,1.125-1.929,2.916-6.5,5-7.5,3.913-2.539,10.954,3.176,13.5,4.5,4.833,2.513,9.58,3.516,14.5,6,7.428,3.75,15.629,9.119,24,11.5V729c-5.361-3.664-12.842-15.835-17-21.5-5.162-7.033-11.829-13.465-17-20.5-5.717-7.778-15.092-20.9-18-22C602.088,664.272,601.666,665,599.5,665Zm-9,10c12.8-.315,26.228,7.044,26,19.5-1.434,1.431-1.754,2.76-4,3.5-3.442,2.769-10.806.146-13.5-1-4.683-1.992-17.608-8.962-14.5-17.5C585.447,676.9,588.431,676.53,590.5,675Z"/>
    <path id="圆角矩形_1" data-name="圆角矩形 1" class="cls-8" d="M227.391,721.534a1.6,1.6,0,0,1,1.6,1.6v19.325a1.6,1.6,0,0,1-3.2,0V723.134A1.6,1.6,0,0,1,227.391,721.534Z"/>
    <path id="椭圆_8" data-name="椭圆 8" class="cls-16" d="M228.052,695.829c5.453,0,12.215,7.664,14.616,17.605,2.283,9.452-3.052,17.606-14.616,17.606-12.874,0-16.807-8.133-14.616-17.606C215.837,703.056,222.818,695.829,228.052,695.829Z"/>
    <path id="圆角矩形_1-2" data-name="圆角矩形 1" class="cls-8" d="M792.391,778.534a2.4,2.4,0,0,1,2.4,2.4v17.725a2.4,2.4,0,0,1-4.8,0V780.934A2.4,2.4,0,0,1,792.391,778.534Z"/>
    <path id="椭圆_8-2" data-name="椭圆 8" class="cls-17" d="M792.728,782.109c-16.2,0-19.4-7.772-17.95-17.158a28.7,28.7,0,0,1,2.74-8.641,13.863,13.863,0,0,1,0-7.594c2.407-10.272,10.049-17.426,15.3-17.426,5.467,0,12.889,7.586,15.3,17.426a12.158,12.158,0,0,1-.279,7.681,28.657,28.657,0,0,1,2.85,8.554C812.232,774.323,808.4,782.109,792.728,782.109Z"/>
    <path id="圆角矩形_1-3" data-name="圆角矩形 1" class="cls-8" d="M343.391,831.534a2.4,2.4,0,0,1,2.4,2.4v17.725a2.4,2.4,0,1,1-4.8,0V833.934A2.4,2.4,0,0,1,343.391,831.534Z"/>
    <path id="椭圆_7" data-name="椭圆 7" class="cls-18" d="M343.255,784.559c10.33,0,17.067,15.408,18.7,28.493,1.619,12.942-2.372,23.694-18.7,23.694-16.878,0-20.213-10.733-18.7-23.694C326.188,798.991,332.925,784.559,343.255,784.559Z"/>
    <path id="多边形_2" data-name="多边形 2" class="cls-19" d="M313.774,630.576a9.668,9.668,0,0,0-9.412-4.965q-6.195.342-.889-2.875a9.666,9.666,0,0,0,4.965-9.411q-0.34-6.195,2.875-.889a9.666,9.666,0,0,0,9.411,4.965q6.195-.342.89,2.875a9.664,9.664,0,0,0-4.965,9.411Q316.989,635.882,313.774,630.576Z"/>
    <path id="多边形_2-2" data-name="多边形 2" class="cls-20" d="M312.786,629.588a9.667,9.667,0,0,0-9.412-4.965q-6.195.342-.889-2.875a9.666,9.666,0,0,0,4.965-9.411q-0.34-6.195,2.875-.889a9.666,9.666,0,0,0,9.411,4.965q6.195-.342.89,2.875a9.666,9.666,0,0,0-4.965,9.411Q316,634.894,312.786,629.588Z"/>
    <g id="组_6" data-name="组 6">
      <path id="椭圆_9" data-name="椭圆 9" class="cls-19" d="M684.114,515.046a24.065,24.065,0,0,0,46.21-8.893,24.063,24.063,0,1,1-48.112.017A23.977,23.977,0,0,0,684.114,515.046Z"/>
      <circle id="椭圆_9-2" data-name="椭圆 9" class="cls-21" cx="706.282" cy="505.625" r="24.094"/>
      <path id="椭圆_11-2" data-name="椭圆 11" class="cls-19" d="M665.463,530.33c3.868,5.7,25.181-2.019,47.6-17.238,19.513-13.244,33.43-27.8,34.165-35.113,0.689,6.875-13.641,22.258-34.167,36.19-22.423,15.219-43.735,22.937-47.6,17.238a4.072,4.072,0,0,1-.569-2.763A3.6,3.6,0,0,0,665.463,530.33Z"/>
      <path id="形状_15" data-name="形状 15" class="cls-22" d="M682.1,510.385c-8.3,7.729-12.749,14.3-10.877,17.059,2.994,4.41,21.013-2.6,40.249-15.655s32.4-27.214,29.408-31.625c-2.01-2.96-10.8-.758-22.176,4.947l-1.853-1.117c15.234-7.983,27.542-11.075,30.389-6.88,3.868,5.7-11.173,22.657-33.6,37.876s-43.736,22.937-47.6,17.238c-2.732-4.026,4-13.671,16.066-24.35Z"/>
    </g>
    <g id="人">
      <path id="形状_12" data-name="形状 12" class="cls-23" d="M418.034,766.455l-2.137,3.126,3.761,1.362,2.136-3.125Z"/>
      <path id="形状_13" data-name="形状 13" class="cls-24" d="M431.567,785.367s-2.826,1.172.439,4.1,9.349-2.2,11.388-3.446-0.1-3.161-.1-3.161-4.715.316-5.039,0.784a0.97,0.97,0,0,1-.938.345S432.975,785.732,431.567,785.367Z"/>
      <path id="形状_13-2" data-name="形状 13" class="cls-24" d="M416.267,769.271s-2.616,2.662-2.94,2.891,2.131,5.731,9.439,5.319a2.235,2.235,0,0,0,2.418-2.038s-6.673-2.249-4.651-3.563c0.477-.31-0.853-0.522-0.853-0.522S416.856,770.6,416.267,769.271Z"/>
      <path id="形状_10" data-name="形状 10" class="cls-25" d="M440.114,730.832c-2.049,2.781-4.2,4.083-5.977,4.113s-2.2,14.036-3.775,17.3-8.174,14.572-8.425,16.346c0,0-5.062-.059-4.65-0.956s0.445-10.858,6.483-17.567c0.9-2.19-1.465-3.5-2.612-17.383S442.162,728.052,440.114,730.832Z"/>
      <path id="形状_12-2" data-name="形状 12" class="cls-23" d="M432.533,782.551l1.109,3.021,3.755-1.378-1.109-3.021Z"/>
      <path id="形状_11" data-name="形状 11" class="cls-26" d="M439.506,727.148a178.831,178.831,0,0,1-2,25,253.253,253.253,0,0,1,0,30h-5c0.142-6.691-3-20-3-20v-35h10Z"/>
      <path id="形状_3" data-name="形状 3" class="cls-27" d="M420.471,696.335s-6.924,12.38-4.385,13.445,4.227,2.574,11.563-9.914Z"/>
      <path id="形状_4-2" data-name="形状 4" class="cls-23" d="M417.41,708.2c1.881-.7,9.608,9.468,11.464,14.751s-11.388-7.122-12.719-9.911S415.529,708.9,417.41,708.2Z"/>
      <path id="形状_9" data-name="形状 9" class="cls-27" d="M428.322,686.9s0.606,1.681-1.48,3.716,3.615,5.307,4.645,2.85,0.48-2.716.48-2.716Z"/>
      <path id="形状_15-2" data-name="形状 15" class="cls-28" d="M428.119,698.145s-3.753,7.643-4.875,8.221-7.81-2.911-6.154-5.209c2.207-3.062,4.9-8.115,8.217-7.411S428.119,698.145,428.119,698.145Z"/>
      <path id="形状_7" data-name="形状 7" class="cls-23" d="M436.51,683.271c0.839,1.043-.491,3.873-1.453,5.449s-2.749,2.833-3.364,2.428-4.088-2.657-4-4,0.228-3.4.228-3.4-2.562-1.64-2.153-2.915,2.915-.154,2.915-0.154a15.853,15.853,0,0,1,.227-2.224c0.189-.929,6.887-1.445,7.827,2.6S436.179,682.859,436.51,683.271Z"/>
      <path id="形状_8" data-name="形状 8" class="cls-25" d="M435.81,676.906c-2.1-.886-7.2-3.684-10.125.318s-0.842,4.385-.989,5.294,1.894,5.69,1.341,6.63,3.865,0.8,4.657-1.179,2.844-.539,2.227-1.225,1.3-4.456,2.916-2.153a9.252,9.252,0,0,1-.309-1.38c0.115,0.192-.259-3.257.673-1.32s2.1,1.037,3.069.762,1.8-1.118,1.071-1.689C440.318,680.946,437.905,677.792,435.81,676.906Z"/>
      <path id="形状_14" data-name="形状 14" class="cls-29" d="M426.037,691.148s1.625,2.906,4,3,9.279,2.535,9,11l1,27s-15.35,2.85-18-3-2-26-2-26S418.355,699.164,426.037,691.148Z"/>
      <path id="形状_3-2" data-name="形状 3" class="cls-27" d="M429.3,702.318s2.544,13.954,5.179,13.159,4.9-.707,2.6-15.007Z"/>
      <path id="形状_15-3" data-name="形状 15" class="cls-30" d="M436.29,700.994s3.082,7.937,2.747,9.154-7.431,3.774-8,1c-0.758-3.7-2.654-9.1.113-11.065S436.29,700.994,436.29,700.994Z"/>
      <path id="形状_5" data-name="形状 5" class="cls-31" d="M447.6,696.37l4.325-.771-1.314,6.932-4.633.827Z"/>
      <path id="形状_4-3" data-name="形状 4" class="cls-23" d="M433.325,713.691c-0.4-1.965,10.832-8.037,16.338-9.059s-8.789,10.158-11.749,11.044S433.725,715.657,433.325,713.691Z"/>
      <path id="形状_6" data-name="形状 6" class="cls-23" d="M448.865,705.7s3,0.864,3-.145,1.271-2.375,1.2-2.417-0.433-.7-0.447-2.625-5.236-.468-4.849,3.237A2.554,2.554,0,0,0,448.865,705.7Z"/>
    </g>
  </g>
</svg>
